<svg width="1037" height="423" viewBox="0 0 1037 423" fill="none" xmlns="http://www.w3.org/2000/svg">
<path d="M21.6 373.4L0 421.8H11.5L15.8 411.4H38.2L42.5 421.8H54.3L32.7 373.4H21.6ZM19.3 402.9L27 384.4L34.7 402.9H19.3Z" fill="white"/>
<path d="M107.901 400.1C107.901 404.7 107.001 408 105.101 410.1C103.201 412.1 100.601 413.1 97.2008 413.1C93.8008 413.1 91.1008 412.1 89.3008 410.1C87.4008 408.1 86.5008 404.8 86.5008 400.1V373.4H75.3008V400.5C75.3008 407.6 77.2008 413.1 81.1008 416.9C85.0008 420.7 90.3008 422.6 97.2008 422.6C104.101 422.6 109.401 420.7 113.301 416.9C117.201 413.1 119.101 407.6 119.101 400.5V373.4H108.001V400.1H107.901Z" fill="white"/>
<path d="M141 382.6H156.5V421.8H167.7V382.6H183.2V373.4H141V382.6Z" fill="white"/>
<path d="M248.101 379.7C245.801 377.4 243.001 375.7 239.701 374.4C236.501 373.2 233.001 372.5 229.201 372.5C225.401 372.5 221.901 373.1 218.701 374.4C215.501 375.6 212.701 377.4 210.301 379.7C207.901 382 206.001 384.6 204.701 387.6C203.401 390.6 202.801 394 202.801 397.6C202.801 401.2 203.401 404.5 204.701 407.6C206.001 410.6 207.901 413.3 210.201 415.5C212.601 417.8 215.401 419.5 218.601 420.8C221.901 422 225.401 422.7 229.201 422.7C233.001 422.7 236.501 422.1 239.601 420.8C242.801 419.6 245.601 417.8 248.001 415.6C250.401 413.3 252.301 410.7 253.601 407.7C254.901 404.6 255.601 401.3 255.601 397.7C255.601 394.1 254.901 390.7 253.601 387.7C252.401 384.6 250.501 382 248.101 379.7ZM243.201 403.9C242.501 405.8 241.401 407.4 240.001 408.8C238.601 410.2 237.001 411.2 235.201 412C233.401 412.7 231.401 413.1 229.301 413.1C227.201 413.1 225.101 412.7 223.301 412C221.501 411.3 219.801 410.2 218.501 408.8C217.201 407.4 216.101 405.8 215.301 403.9C214.601 402 214.201 399.9 214.201 397.6C214.201 395.3 214.601 393.2 215.301 391.3C216.101 389.4 217.201 387.8 218.501 386.4C219.901 385 221.501 384 223.301 383.2C225.101 382.5 227.101 382.1 229.301 382.1C231.501 382.1 233.501 382.5 235.301 383.2C237.101 383.9 238.701 385 240.101 386.4C241.501 387.8 242.501 389.4 243.301 391.3C244.101 393.2 244.501 395.3 244.501 397.6C244.501 399.9 244.001 402 243.201 403.9Z" fill="white"/>
<path d="M326.598 373.4L308.798 403.5L290.698 373.4H281.398V421.8H291.898V393.4L306.098 416.7H311.198L325.398 392.8L325.498 421.8H335.998L335.798 373.4H326.598Z" fill="white"/>
<path d="M406.999 379.7C404.599 377.4 401.899 375.7 398.599 374.4C395.399 373.2 391.899 372.5 388.099 372.5C384.299 372.5 380.799 373.1 377.599 374.4C374.399 375.6 371.599 377.4 369.199 379.7C366.799 382 364.899 384.6 363.599 387.6C362.299 390.6 361.699 394 361.699 397.6C361.699 401.2 362.299 404.5 363.599 407.6C364.899 410.6 366.799 413.3 369.099 415.5C371.499 417.8 374.299 419.5 377.499 420.8C380.799 422 384.299 422.7 388.099 422.7C391.899 422.7 395.399 422.1 398.499 420.8C401.699 419.6 404.499 417.8 406.899 415.6C409.299 413.3 411.199 410.7 412.499 407.7C413.799 404.6 414.499 401.3 414.499 397.7C414.499 394.1 413.799 390.7 412.499 387.7C411.299 384.6 409.399 382 406.999 379.7ZM402.099 403.9C401.399 405.8 400.299 407.4 398.899 408.8C397.499 410.2 395.899 411.2 394.099 412C392.299 412.7 390.299 413.1 388.199 413.1C385.999 413.1 383.999 412.7 382.199 412C380.399 411.3 378.699 410.2 377.399 408.8C376.099 407.4 374.999 405.8 374.199 403.9C373.499 402 373.099 399.9 373.099 397.6C373.099 395.3 373.499 393.2 374.199 391.3C374.999 389.4 376.099 387.8 377.399 386.4C378.799 385 380.399 384 382.199 383.2C383.999 382.5 385.999 382.1 388.199 382.1C390.399 382.1 392.399 382.5 394.199 383.2C395.999 383.9 397.599 385 398.999 386.4C400.399 387.8 401.399 389.4 402.199 391.3C402.999 393.2 403.399 395.3 403.399 397.6C403.399 399.9 402.899 402 402.099 403.9Z" fill="white"/>
<path d="M434.199 382.6H449.699V421.8H460.899V382.6H476.399V373.4H434.199V382.6Z" fill="white"/>
<path d="M510.899 373.4H499.699V421.8H510.899V373.4Z" fill="white"/>
<path d="M559.902 408L545.202 373.4H533.102L553.902 421.8H565.002L585.902 373.4H574.802L559.902 408Z" fill="white"/>
<path d="M618.401 401.6H640.901V392.9H618.401V382.4H643.801V373.4H607.301V421.8H644.701V412.8H618.401V401.6Z" fill="white"/>
<path d="M720.401 386.4C721.801 385 723.501 384 725.401 383.2C727.301 382.5 729.501 382.1 731.801 382.1C734.201 382.1 736.501 382.6 738.601 383.5C740.701 384.4 742.601 385.7 744.301 387.6L751.501 381C749.101 378.3 746.201 376.2 742.801 374.8C739.401 373.4 735.501 372.7 731.301 372.7C727.401 372.7 723.901 373.3 720.701 374.6C717.501 375.8 714.701 377.5 712.301 379.8C709.901 382.1 708.001 384.7 706.701 387.7C705.401 390.7 704.801 394.1 704.801 397.7C704.801 401.3 705.401 404.7 706.701 407.7C708.001 410.7 709.901 413.4 712.201 415.6C714.601 417.9 717.401 419.6 720.601 420.9C723.801 422.1 727.401 422.7 731.201 422.7C734.701 422.7 738.101 422.2 741.601 421.1C745.101 420 748.201 418.5 750.801 416.5V396.9H740.601V411.1C739.801 411.5 739.101 411.9 738.301 412.1C736.201 412.8 734.101 413.1 731.901 413.1C729.601 413.1 727.501 412.7 725.501 412C723.601 411.3 722.001 410.2 720.501 408.8C719.101 407.4 718.001 405.7 717.301 403.8C716.601 401.9 716.201 399.8 716.201 397.6C716.201 395.3 716.601 393.2 717.301 391.3C718.001 389.4 719.001 387.8 720.401 386.4Z" fill="white"/>
<path d="M810.498 406.3C813.598 404.9 816.098 402.9 817.798 400.4C819.498 397.8 820.398 394.7 820.398 391.1C820.398 387.5 819.498 384.3 817.798 381.7C816.098 379.1 813.698 377.1 810.498 375.7C807.398 374.3 803.598 373.6 799.298 373.6H778.398V422H789.598V408.3H799.298C799.498 408.3 799.598 408.3 799.798 408.3L809.098 421.8H821.198L810.498 406.3ZM806.398 384.8C808.098 386.3 808.998 388.3 808.998 391C808.998 393.6 808.098 395.7 806.398 397.2C804.698 398.7 802.098 399.4 798.698 399.4H789.598V382.5H798.698C802.198 382.6 804.698 383.3 806.398 384.8Z" fill="white"/>
<path d="M888.8 379.7C886.5 377.4 883.7 375.7 880.4 374.4C877.2 373.2 873.7 372.5 869.9 372.5C866.1 372.5 862.6 373.1 859.4 374.4C856.2 375.6 853.4 377.4 851 379.7C848.6 382 846.7 384.6 845.4 387.6C844.1 390.6 843.5 394 843.5 397.6C843.5 401.2 844.1 404.5 845.4 407.6C846.7 410.6 848.6 413.3 850.9 415.5C853.3 417.8 856.1 419.5 859.3 420.8C862.6 422 866.1 422.7 869.9 422.7C873.7 422.7 877.2 422.1 880.3 420.8C883.5 419.6 886.3 417.8 888.7 415.6C891.1 413.3 893 410.7 894.3 407.7C895.6 404.6 896.3 401.3 896.3 397.7C896.3 394.1 895.6 390.7 894.3 387.7C893 384.6 891.2 382 888.8 379.7ZM883.9 403.9C883.2 405.8 882.1 407.4 880.7 408.8C879.3 410.2 877.7 411.2 875.9 412C874.1 412.7 872.1 413.1 870 413.1C867.8 413.1 865.8 412.7 864 412C862.2 411.3 860.5 410.2 859.2 408.8C857.9 407.4 856.8 405.8 856 403.9C855.3 402 854.9 399.9 854.9 397.6C854.9 395.3 855.3 393.2 856 391.3C856.8 389.4 857.9 387.8 859.2 386.4C860.6 385 862.2 384 864 383.2C865.8 382.5 867.8 382.1 870 382.1C872.2 382.1 874.2 382.5 876 383.2C877.8 383.9 879.4 385 880.8 386.4C882.2 387.8 883.2 389.4 884 391.3C884.8 393.2 885.2 395.3 885.2 397.6C885.2 399.9 884.7 402 883.9 403.9Z" fill="white"/>
<path d="M954.401 400.1C954.401 404.7 953.501 408 951.601 410.1C949.701 412.1 947.101 413.1 943.701 413.1C940.301 413.1 937.601 412.1 935.801 410.1C933.901 408.1 933.001 404.8 933.001 400.1V373.4H921.801V400.5C921.801 407.6 923.701 413.1 927.601 416.9C931.501 420.7 936.801 422.6 943.701 422.6C950.601 422.6 955.901 420.7 959.801 416.9C963.701 413.1 965.601 407.6 965.601 400.5V373.4H954.501V400.1H954.401Z" fill="white"/>
<path d="M1033.2 381.6C1031.5 379 1029.1 377 1026 375.6C1022.9 374.2 1019.1 373.5 1014.8 373.5H993.898V421.9H1005.1V408.6H1014.9C1019.2 408.6 1023 407.9 1026.1 406.5C1029.2 405.1 1031.7 403 1033.3 400.4C1035 397.8 1035.9 394.7 1035.9 391.1C1035.8 387.4 1034.9 384.2 1033.2 381.6ZM1021.9 397.1C1020.2 398.6 1017.6 399.3 1014.2 399.3H1005.1V382.5H1014.2C1017.6 382.5 1020.2 383.2 1021.9 384.7C1023.6 386.2 1024.5 388.2 1024.5 390.9C1024.5 393.6 1023.6 395.7 1021.9 397.1Z" fill="white"/>
<path d="M223.098 4.40039H137.698L30.8984 255.9H330.698L223.098 4.40039ZM142.298 190.4L180.098 101.5H181.298L219.398 190.4H142.298Z" fill="white"/>
<path d="M485.999 234.3C477.999 225 470.099 212.2 465.599 201.1C460.899 189.4 458.499 176.9 458.499 163.9C458.499 150.9 460.999 137.5 465.599 126.3C470.099 115.1 476.799 105.3 485.299 97.1C494.299 88.5 504.499 82.1 515.899 77.9C527.299 73.4 540.599 71.1 555.199 71.1C569.799 71.1 583.499 73.7 595.099 78.6C607.399 83.7 618.399 91.2 628.799 101.6L636.699 109.5L686.999 60.4L679.999 52.4C665.299 35.6 646.699 22.3 624.799 13.2C603.499 4.4 579.199 0 552.399 0C527.499 0 504.599 4.00001 484.199 11.9C462.399 20.3 444.499 31.5 429.699 46C414.199 60.3 401.799 77.9 393.099 98.5C384.599 118.5 380.199 140.5 380.199 163.8C380.199 187.1 384.499 209.5 392.999 229C396.199 236.7 399.699 243.7 403.499 249.5C405.099 252 407.499 255.6 407.499 255.6C407.499 255.6 497.999 255.6 511.299 255.6C511.199 255.9 495.099 244.9 485.999 234.3Z" fill="white"/>
<path d="M428.901 281.9C430.001 283 432.501 285.4 433.701 286.3C437.101 289.2 438.601 290.5 438.601 290.5H678.801V273.2H420.801C423.601 276.4 426.301 279.3 428.901 281.9Z" fill="white"/>
<path d="M679.1 255.9V149.5H566.5V217.5H604.3V255.9H679.1Z" fill="white"/>
<path d="M484.3 314.5C499.9 319.9 517.1 323.8 535 325.1H679V307.8H466.5C466.5 307.8 478.5 312.4 484.3 314.5Z" fill="white"/>
<path d="M826.798 273.2H748.898V290.5H826.798V273.2Z" fill="white"/>
<path d="M888.5 239L900.6 256H987L963 221.4C980.3 212.2 993.8 200 1003.1 185C1014.6 167.8 1020.2 147.4 1020.2 122.6C1020.2 97.8004 1014.5 77.9004 1003.2 59.9004C991.8 42.3004 976 29.0004 954.9 19.1004C934.5 10.0004 910.2 5.40039 882.6 5.40039H749V255.9H826.9V239C826.8 239 886.5 239 888.5 239ZM826.4 75.7004H879.6C901 75.7004 917 79.9004 927.3 88.2004C936.9 96.2004 941.6 107.8 941.6 123.4C941.6 139 936.9 150.2 927.3 158.6C917.1 167.2 901.1 171.5 879.6 171.5H826.4V75.7004Z" fill="white"/>
<path d="M1000.1 273.2H913.199L925.199 290.5H1012.1L1000.1 273.2Z" fill="white"/>
<path d="M937.398 307.8L949.498 325.1H1036.4L1024.3 307.8H937.398Z" fill="white"/>
<path d="M826.798 307.8H748.898V325.1H826.798V307.8Z" fill="white"/>
<path d="M260.598 290.5H344.398L337.198 273.2H253.398L260.598 290.5Z" fill="white"/>
<path d="M267.801 307.8L274.901 325.1H359.401L351.901 307.8H267.801Z" fill="white"/>
<path d="M105.399 273.2H22.3992L15.1992 290.5H98.1992L105.399 273.2Z" fill="white"/>
<path d="M7.59998 307.8L0.5 325.1H83.8L90.9 307.8H7.59998Z" fill="white"/>
</svg>
